<svg width="28" height="28" viewBox="0 0 28 28" fill="none" xmlns="http://www.w3.org/2000/svg">
<g clip-path="url(#clip0)">
<path d="M0 16.4775V26.9775C0 27.1322 0.0614582 27.2806 0.170854 27.39C0.280251 27.4994 0.428624 27.5609 0.583333 27.5609H16.4173C16.469 27.5608 16.5197 27.5471 16.5643 27.5211C16.6089 27.495 16.6457 27.4576 16.6711 27.4126C16.6965 27.3676 16.7095 27.3167 16.7088 27.2651C16.7081 27.2135 16.6936 27.1629 16.667 27.1187C16.4478 26.7571 16.3324 26.3422 16.3333 25.9194V19.1947C16.3332 19.123 16.3068 19.0538 16.2591 19.0002C16.2113 18.9467 16.1456 18.9125 16.0743 18.9042C15.504 18.8405 14.9772 18.5689 14.5945 18.1412C14.2118 17.7136 14.0002 17.1599 14 16.586V15.0192C14 14.9419 13.9693 14.8677 13.9146 14.813C13.8599 14.7583 13.7857 14.7275 13.7083 14.7275H1.75C1.28587 14.7275 0.840752 14.9119 0.512563 15.2401C0.184374 15.5683 0 16.0134 0 16.4775H0ZM4.08333 17.3525C4.08333 17.2752 4.11406 17.201 4.16876 17.1463C4.22346 17.0916 4.29765 17.0609 4.375 17.0609H5.54167C5.61902 17.0609 5.69321 17.0916 5.74791 17.1463C5.8026 17.201 5.83333 17.2752 5.83333 17.3525V19.6859C5.83333 19.7632 5.86406 19.8374 5.91876 19.8921C5.97346 19.9468 6.04765 19.9775 6.125 19.9775H7.875C7.95235 19.9775 8.02654 19.9468 8.08124 19.8921C8.13594 19.8374 8.16667 19.7632 8.16667 19.6859V17.3525C8.16667 17.2752 8.1974 17.201 8.25209 17.1463C8.30679 17.0916 8.38098 17.0609 8.45833 17.0609H9.625C9.70235 17.0609 9.77654 17.0916 9.83124 17.1463C9.88594 17.201 9.91667 17.2752 9.91667 17.3525V24.3525C9.91682 24.3909 9.90938 24.4289 9.89478 24.4643C9.88018 24.4998 9.8587 24.532 9.83158 24.5591C9.80447 24.5862 9.77225 24.6077 9.7368 24.6223C9.70134 24.6369 9.66335 24.6444 9.625 24.6442H8.45833C8.41999 24.6444 8.38199 24.6369 8.34653 24.6223C8.31108 24.6077 8.27886 24.5862 8.25175 24.5591C8.22464 24.532 8.20316 24.4998 8.18855 24.4643C8.17395 24.4289 8.16651 24.3909 8.16667 24.3525V22.0192C8.16667 21.9419 8.13594 21.8677 8.08124 21.813C8.02654 21.7583 7.95235 21.7275 7.875 21.7275H6.125C6.04765 21.7275 5.97346 21.7583 5.91876 21.813C5.86406 21.8677 5.83333 21.9419 5.83333 22.0192V24.3525C5.83349 24.3909 5.82605 24.4289 5.81145 24.4643C5.79684 24.4998 5.77536 24.532 5.74825 24.5591C5.72114 24.5862 5.68892 24.6077 5.65346 24.6223C5.61801 24.6369 5.58001 24.6444 5.54167 24.6442H4.375C4.33665 24.6444 4.29866 24.6369 4.2632 24.6223C4.22775 24.6077 4.19553 24.5862 4.16842 24.5591C4.1413 24.532 4.11982 24.4998 4.10522 24.4643C4.09062 24.4289 4.08318 24.3909 4.08333 24.3525V17.3525Z" fill="#00B6F3"/>
<path d="M23.3334 18.9194V25.9194C23.3338 26.3421 23.2184 26.7569 22.9998 27.1187C22.9727 27.1629 22.958 27.2135 22.9571 27.2652C22.9562 27.317 22.9691 27.3681 22.9946 27.4132C23.02 27.4583 23.0571 27.4958 23.1019 27.5217C23.1467 27.5477 23.1976 27.5612 23.2494 27.5609H27.4168C27.5715 27.5609 27.7199 27.4994 27.8292 27.39C27.9386 27.2806 28.0001 27.1322 28.0001 26.9775V16.4775C28.0001 16.0134 27.8157 15.5683 27.4875 15.2401C27.1594 14.9119 26.7142 14.7275 26.2501 14.7275H25.9584C25.8809 14.728 25.8067 14.759 25.7519 14.8139C25.7249 14.8408 25.7035 14.8728 25.6888 14.908C25.6742 14.9433 25.6667 14.9811 25.6668 15.0192V16.586C25.6668 17.2049 25.4209 17.7984 24.9834 18.236C24.5458 18.6735 23.9523 18.9194 23.3334 18.9194Z" fill="#00B6F3"/>
<path d="M11.6663 12.3944C11.6663 11.7755 11.4205 11.182 10.9829 10.7445C10.5453 10.3069 9.95185 10.061 9.33301 10.061H4.66634C4.0475 10.061 3.45401 10.3069 3.01643 10.7445C2.57884 11.182 2.33301 11.7755 2.33301 12.3944V13.2694C2.33301 13.3467 2.36374 13.4209 2.41844 13.4756C2.47313 13.5303 2.54732 13.561 2.62467 13.561H11.3747C11.452 13.561 11.5262 13.5303 11.5809 13.4756C11.6356 13.4209 11.6663 13.3467 11.6663 13.2694V12.3944Z" fill="#00B6F3"/>
<path d="M19.8337 6.56087C21.4445 6.56087 22.7503 5.25504 22.7503 3.64421C22.7503 2.03338 21.4445 0.727539 19.8337 0.727539C18.2228 0.727539 16.917 2.03338 16.917 3.64421C16.917 5.25504 18.2228 6.56087 19.8337 6.56087Z" fill="#007FF3"/>
<path d="M16.3337 17.7528H17.2087C17.286 17.7528 17.3602 17.7835 17.4149 17.8382C17.4696 17.8929 17.5003 17.9671 17.5003 18.0444V25.9194C17.5003 26.2289 17.6232 26.5256 17.842 26.7444C18.0608 26.9632 18.3576 27.0861 18.667 27.0861H21.0003C21.3097 27.0861 21.6065 26.9632 21.8253 26.7444C22.0441 26.5256 22.167 26.2289 22.167 25.9194V18.0444C22.167 17.9671 22.1977 17.8929 22.2524 17.8382C22.3071 17.7835 22.3813 17.7528 22.4587 17.7528H23.3337C23.6431 17.7528 23.9398 17.6299 24.1586 17.4111C24.3774 17.1923 24.5003 16.8955 24.5003 16.5861V10.7528C24.5003 10.1339 24.2545 9.54044 23.8169 9.10285C23.3793 8.66527 22.7858 8.41943 22.167 8.41943H17.5003C16.8815 8.41943 16.288 8.66527 15.8504 9.10285C15.4128 9.54044 15.167 10.1339 15.167 10.7528V16.5861C15.167 16.8955 15.2899 17.1923 15.5087 17.4111C15.7275 17.6299 16.0242 17.7528 16.3337 17.7528Z" fill="#007FF3"/>
<path d="M4.08301 5.39421C4.08301 6.16775 4.3903 6.90962 4.93728 7.4566C5.48426 8.00358 6.22613 8.31087 6.99967 8.31087C7.77322 8.31087 8.51509 8.00358 9.06207 7.4566C9.60905 6.90962 9.91634 6.16775 9.91634 5.39421V4.51921C9.91634 4.44185 9.88561 4.36766 9.83091 4.31297C9.77622 4.25827 9.70203 4.22754 9.62467 4.22754H4.37467C4.29732 4.22754 4.22313 4.25827 4.16844 4.31297C4.11374 4.36766 4.08301 4.44185 4.08301 4.51921V5.39421Z" fill="#00B6F3"/>
<path d="M9.91638 1.81739C9.91868 1.59838 9.85243 1.38413 9.72691 1.20463C9.60139 1.02514 9.42288 0.889391 9.21638 0.816394C7.78256 0.306645 6.21686 0.306645 4.78304 0.816394C4.57692 0.889262 4.39868 1.02465 4.27319 1.20368C4.14771 1.38271 4.08123 1.59644 4.08304 1.81506V2.76706C4.08304 2.84442 4.11377 2.9186 4.16847 2.9733C4.22317 3.028 4.29736 3.05873 4.37471 3.05873H9.62471C9.70207 3.05873 9.77625 3.028 9.83095 2.9733C9.88565 2.9186 9.91638 2.84442 9.91638 2.76706V1.81739Z" fill="#00B6F3"/>
</g>
<defs>
<clipPath id="clip0">
<rect width="28" height="28" fill="white"/>
</clipPath>
</defs>
</svg>
