<svg width="72" height="72" viewBox="0 0 72 72" fill="none" xmlns="http://www.w3.org/2000/svg">
<path d="M63.5475 17.6527V65.625C63.5475 69.1456 60.6931 72 57.1726 72H7.14253C3.62198 72 0.767578 69.1456 0.767578 65.625V6.37495C0.767719 2.85441 3.62198 0 7.14253 0H45.8947L63.5475 17.6527Z" fill="#EDF2F7"/>
<path d="M63.5472 17.6527H52.2693C48.7488 17.6527 45.8945 14.7983 45.8945 11.2777V0" fill="#CBD5E0"/>
<path d="M69.3369 43.7507L70.9877 40.4188C71.5641 39.2569 71.0894 37.8488 69.9275 37.2724L66.2921 35.4717C65.1303 34.8953 63.7222 35.3701 63.1458 36.5319L55.9517 51.0468L52.4483 45.1876C51.7826 44.074 50.3423 43.7116 49.2287 44.3774L45.7468 46.4583C44.6349 47.1241 44.2708 48.5643 44.9365 49.6779L51.8396 61.2249C52.2805 61.962 53.089 62.401 53.9456 62.3671L58.8393 62.1743C59.6976 62.1404 60.4687 61.6406 60.8488 60.8714L66.9578 48.5482L69.3369 43.7507Z" fill="#FF66B0"/>
<path d="M57.7827 54.1057L66.4934 36.5308C66.6287 36.2581 66.8111 36.0248 67.0241 35.8326L66.2936 35.4707C65.1317 34.8943 63.7236 35.3691 63.1472 36.5309L55.9531 51.0458L57.7827 54.1057Z" fill="#FF1284"/>
<path d="M55.1867 61.2233L48.2836 49.6763C47.6179 48.5627 47.982 47.1224 49.0939 46.4567L52.0501 44.6898C51.3055 43.9812 50.1555 43.8222 49.2296 44.3757L45.7477 46.4567C44.6359 47.1224 44.2717 48.5627 44.9374 49.6763L51.8406 61.2233C52.2814 61.9603 53.0899 62.3993 53.9466 62.3654L56.5145 62.2643C55.9672 62.0964 55.4899 61.7304 55.1867 61.2233Z" fill="#FF1284"/>
<path d="M54.9308 32.8497H10.0865C9.48642 32.8497 9 32.3633 9 31.7632C9 31.1632 9.48642 30.6768 10.0865 30.6768H54.9308C55.5308 30.6768 56.0173 31.1632 56.0173 31.7632C56.0173 32.3633 55.5308 32.8497 54.9308 32.8497Z" fill="#48BB78"/>
<path d="M47.2785 25.2003H10.0865C9.48642 25.2003 9 24.7139 9 24.1138C9 23.5138 9.48642 23.0273 10.0865 23.0273H47.2785C47.8786 23.0273 48.365 23.5138 48.365 24.1138C48.365 24.7139 47.8787 25.2003 47.2785 25.2003Z" fill="#48BB78"/>
<path d="M23.2958 9.2706H10.0865C9.48642 9.2706 9 8.78418 9 8.18413C9 7.58408 9.48642 7.09766 10.0865 7.09766H23.2958C23.8958 7.09766 24.3822 7.58408 24.3822 8.18413C24.3822 8.78418 23.8958 9.2706 23.2958 9.2706Z" fill="#48BB78"/>
<path d="M54.5797 40.4464H9.73491C9.13486 40.4464 8.64844 39.96 8.64844 39.3599C8.64844 38.7599 9.13486 38.2734 9.73491 38.2734H54.5798C55.1798 38.2734 55.6663 38.7599 55.6663 39.3599C55.6663 39.96 55.1798 40.4464 54.5797 40.4464Z" fill="#00B6F3"/>
<path d="M28.51 48.0411H9.73491C9.13486 48.0411 8.64844 47.5547 8.64844 46.9546C8.64844 46.3546 9.13486 45.8682 9.73491 45.8682H28.51C29.1101 45.8682 29.5965 46.3546 29.5965 46.9546C29.5966 47.5545 29.1101 48.0411 28.51 48.0411Z" fill="#00B6F3"/>
<path d="M42.0413 55.6368H9.73491C9.13486 55.6368 8.64844 55.1504 8.64844 54.5503C8.64844 53.9503 9.13486 53.4639 9.73491 53.4639H42.0413C42.6413 53.4639 43.1277 53.9503 43.1277 54.5503C43.1277 55.1502 42.6413 55.6368 42.0413 55.6368Z" fill="#00B6F3"/>
<path d="M16.7108 65.2755H9.73491C9.13486 65.2755 8.64844 64.789 8.64844 64.189C8.64844 63.589 9.13486 63.1025 9.73491 63.1025H16.7108C17.3108 63.1025 17.7972 63.589 17.7972 64.189C17.7974 64.789 17.3108 65.2755 16.7108 65.2755Z" fill="#00B6F3"/>
</svg>
