<svg width="28" height="28" viewBox="0 0 28 28" fill="none" xmlns="http://www.w3.org/2000/svg">
<g clip-path="url(#clip0)">
<path d="M13.7023 20.3313L17.7973 16.2363C17.8378 16.1955 17.8653 16.1436 17.8763 16.0871C17.8874 16.0307 17.8815 15.9722 17.8595 15.9191C17.8374 15.866 17.8001 15.8206 17.7523 15.7886C17.7045 15.7566 17.6483 15.7395 17.5908 15.7393H16.8371C16.7109 15.7393 16.5881 15.7803 16.4871 15.856C16.3861 15.9317 16.3124 16.0382 16.2771 16.1593C15.9504 17.256 14.3871 18.0843 12.8354 18.0843C12.1366 18.1336 11.4386 17.9777 10.8272 17.6357C10.2157 17.2937 9.71753 16.7806 9.39376 16.1593C9.36034 16.0393 9.28876 15.9334 9.18984 15.8576C9.09092 15.7819 8.97003 15.7403 8.84543 15.7393H0.583097C0.488105 15.7378 0.394305 15.7606 0.310592 15.8055C0.226879 15.8505 0.156029 15.916 0.104763 15.996C0.0471417 16.0739 0.0113583 16.1658 0.0011042 16.2622C-0.00914987 16.3586 0.00649673 16.456 0.04643 16.5443C0.532148 17.6897 1.34435 18.6666 2.38171 19.3534C3.41908 20.0401 4.63568 20.4062 5.87976 20.406L13.4934 20.4177C13.5322 20.4178 13.5706 20.4102 13.6065 20.3954C13.6423 20.3805 13.6749 20.3588 13.7023 20.3313Z" fill="#00B6F3"/>
<path d="M4.08366 14C4.39308 14 4.68982 13.8771 4.90862 13.6583C5.12741 13.4395 5.25033 13.1428 5.25033 12.8333V3.5C5.25033 3.19058 5.37324 2.89383 5.59203 2.67504C5.81083 2.45625 6.10757 2.33333 6.41699 2.33333H20.417C20.7264 2.33333 21.0232 2.45625 21.242 2.67504C21.4607 2.89383 21.5837 3.19058 21.5837 3.5V11.8137C21.5837 11.8678 21.5987 11.9209 21.6272 11.967C21.6557 12.0131 21.6964 12.0503 21.7449 12.0745C21.7933 12.0988 21.8476 12.109 21.9015 12.1042C21.9555 12.0993 22.007 12.0795 22.0503 12.047C22.5436 11.6783 23.1033 11.4081 23.6988 11.2513C23.7617 11.235 23.8173 11.1981 23.8568 11.1465C23.8964 11.0949 23.9175 11.0316 23.917 10.9667V3.5C23.9142 2.57259 23.5446 1.68396 22.8888 1.02819C22.233 0.372408 21.3444 0.00276977 20.417 0L6.41699 0C5.48959 0.00276977 4.60096 0.372408 3.94518 1.02819C3.2894 1.68396 2.91976 2.57259 2.91699 3.5V12.8333C2.91699 13.1428 3.03991 13.4395 3.2587 13.6583C3.47749 13.8771 3.77424 14 4.08366 14Z" fill="#00B6F3"/>
<path d="M7.25201 9.95374C7.09073 10.1149 7.00008 10.3335 7 10.5615C6.99992 10.7895 7.09041 11.0082 7.25158 11.1695C7.41274 11.3308 7.63137 11.4214 7.85937 11.4215C8.08736 11.4216 8.30606 11.3311 8.46733 11.1699L9.57006 10.0663C9.6461 9.99055 9.74082 9.9362 9.84462 9.90878C9.94842 9.88137 10.0576 9.88186 10.1612 9.91021C10.2647 9.93856 10.3589 9.99376 10.4343 10.0702C10.5096 10.1467 10.5635 10.2417 10.5903 10.3457C10.6353 10.5272 10.7233 10.6952 10.847 10.8355C10.9706 10.9758 11.1263 11.0843 11.3007 11.1517C11.4751 11.2192 11.6632 11.2436 11.8491 11.223C12.035 11.2024 12.2132 11.1373 12.3686 11.0333L13.2074 10.4737C13.3248 10.3961 13.4653 10.3613 13.6053 10.3752C13.7452 10.3892 13.8761 10.451 13.9758 10.5502L14.593 11.1674C14.7541 11.3285 14.9727 11.4191 15.2006 11.4192H18.6034C18.8313 11.4192 19.0499 11.3286 19.2111 11.1674C19.3723 11.0063 19.4629 10.7876 19.4629 10.5597C19.4629 10.3317 19.3723 10.1131 19.2111 9.95193C19.0499 9.79075 18.8313 9.70019 18.6034 9.70019H15.6458C15.6175 9.70013 15.5895 9.69448 15.5634 9.68356C15.5373 9.67265 15.5136 9.65669 15.4937 9.63659L15.1912 9.33491C14.8099 8.95544 14.3094 8.7192 13.7742 8.66611C13.2389 8.61303 12.7017 8.74634 12.2534 9.04354L12.1348 9.12347C12.0894 9.15369 12.0343 9.16553 11.9805 9.1566C11.9267 9.14766 11.8783 9.11861 11.8451 9.07534C11.6434 8.81283 11.3879 8.5964 11.0958 8.44051C10.8037 8.28463 10.4817 8.19288 10.1513 8.1714C9.82094 8.14993 9.48977 8.19921 9.17994 8.31596C8.87012 8.43272 8.58879 8.61425 8.35474 8.84843L7.25201 9.95374Z" fill="#00B6F3"/>
<path d="M14.8633 23.3882C14.7916 23.3164 14.7024 23.2646 14.6045 23.2379C14.5066 23.2112 14.4034 23.2104 14.3052 23.2358C14.2069 23.2611 14.117 23.3116 14.0442 23.3823C13.9715 23.453 13.9184 23.5415 13.8903 23.639L12.8566 27.2557C12.8317 27.3425 12.8273 27.4338 12.8437 27.5226C12.8601 27.6114 12.8969 27.6952 12.9512 27.7674C13.0055 27.8395 13.0758 27.8981 13.1565 27.9385C13.2373 27.9788 13.3263 27.9999 13.4166 28C13.4708 28.0003 13.5247 27.9925 13.5765 27.9767L17.1931 26.943C17.2907 26.915 17.3793 26.8621 17.4502 26.7894C17.521 26.7167 17.5717 26.6268 17.5971 26.5285C17.6226 26.4302 17.6219 26.327 17.5953 26.2291C17.5686 26.1311 17.5169 26.0418 17.4451 25.97L14.8633 23.3882Z" fill="#007FF3"/>
<path d="M21.9004 15.434C21.791 15.3246 21.6426 15.2632 21.488 15.2632C21.3333 15.2632 21.1849 15.3246 21.0756 15.434L15.2294 21.2801C15.12 21.3895 15.0586 21.5379 15.0586 21.6926C15.0586 21.8472 15.12 21.9956 15.2294 22.105L18.7294 25.605C18.7836 25.6593 18.8479 25.7024 18.9188 25.7318C18.9897 25.7612 19.0657 25.7764 19.1424 25.7764C19.2191 25.7764 19.2951 25.7612 19.366 25.7318C19.4368 25.7024 19.5012 25.6593 19.5554 25.605L25.4004 19.7588C25.5097 19.6494 25.5712 19.5011 25.5712 19.3464C25.5712 19.1917 25.5097 19.0434 25.4004 18.934L21.9004 15.434Z" fill="#007FF3"/>
<path d="M27.1051 13.7293C26.8149 13.4437 26.4709 13.2184 26.0931 13.0665C25.7153 12.9145 25.3111 12.8389 24.9039 12.844C24.4967 12.8491 24.0945 12.9348 23.7206 13.0962C23.3467 13.2575 23.0085 13.4914 22.7255 13.7842C22.6161 13.8935 22.5547 14.0419 22.5547 14.1966C22.5547 14.3513 22.6161 14.4996 22.7255 14.609L26.2255 18.109C26.2765 18.1573 26.3366 18.1951 26.4023 18.2201C26.4679 18.2451 26.5379 18.2569 26.6081 18.2548C26.7936 18.255 26.9718 18.183 27.1051 18.0542C27.6779 17.4802 27.9995 16.7025 27.9995 15.8917C27.9995 15.0809 27.6779 14.3032 27.1051 13.7293Z" fill="#007FF3"/>
</g>
<defs>
<clipPath id="clip0">
<rect width="28" height="28" fill="white"/>
</clipPath>
</defs>
</svg>
