<svg width="28" height="28" viewBox="0 0 28 28" fill="none" xmlns="http://www.w3.org/2000/svg">
<g clip-path="url(#clip0)">
<path d="M21 24.5C20.6906 24.5 20.3938 24.6229 20.175 24.8417C19.9562 25.0605 19.8333 25.3572 19.8333 25.6667H4.66667C4.51196 25.6667 4.36358 25.6052 4.25419 25.4958C4.14479 25.3864 4.08333 25.238 4.08333 25.0833V24.7917C4.08333 24.7143 4.0526 24.6401 3.99791 24.5854C3.94321 24.5307 3.86902 24.5 3.79167 24.5H2.04167C1.96431 24.5 1.89013 24.5307 1.83543 24.5854C1.78073 24.6401 1.75 24.7143 1.75 24.7917V25.6667C1.75 26.2855 1.99583 26.879 2.43342 27.3166C2.871 27.7542 3.46449 28 4.08333 28H19.8333C20.4522 28 21.0457 27.7542 21.4832 27.3166C21.9208 26.879 22.1667 26.2855 22.1667 25.6667C22.1667 25.3572 22.0438 25.0605 21.825 24.8417C21.6062 24.6229 21.3094 24.5 21 24.5Z" fill="#00B6F3"/>
<path d="M3.79167 5.83333C3.86902 5.83333 3.94321 5.8026 3.99791 5.74791C4.0526 5.69321 4.08333 5.61902 4.08333 5.54167V2.91667C4.08333 2.76196 4.14479 2.61358 4.25419 2.50419C4.36358 2.39479 4.51196 2.33333 4.66667 2.33333H19.8333C19.988 2.33333 20.1364 2.39479 20.2458 2.50419C20.3552 2.61358 20.4167 2.76196 20.4167 2.91667V4.63283C20.4167 4.94225 20.5396 5.239 20.7584 5.45779C20.9772 5.67658 21.2739 5.7995 21.5833 5.7995C21.8928 5.7995 22.1895 5.67658 22.4083 5.45779C22.6271 5.239 22.75 4.94225 22.75 4.63283V2.33333C22.75 1.71449 22.5042 1.121 22.0666 0.683417C21.629 0.245833 21.0355 0 20.4167 0L4.08333 0C3.46449 0 2.871 0.245833 2.43342 0.683417C1.99583 1.121 1.75 1.71449 1.75 2.33333V3.20833C1.75 3.28569 1.71927 3.35987 1.66457 3.41457C1.60987 3.46927 1.53569 3.5 1.45833 3.5H1.16667C0.857247 3.5 0.560501 3.62292 0.341709 3.84171C0.122916 4.0605 0 4.35725 0 4.66667C0 4.97609 0.122916 5.27283 0.341709 5.49162C0.560501 5.71042 0.857247 5.83333 1.16667 5.83333H3.79167Z" fill="#00B6F3"/>
<path d="M3.79167 11.6667C3.86902 11.6667 3.94321 11.6359 3.99791 11.5812C4.0526 11.5265 4.08333 11.4524 4.08333 11.375V7.29167C4.08333 7.21431 4.0526 7.14013 3.99791 7.08543C3.94321 7.03073 3.86902 7 3.79167 7H2.04167C1.96431 7 1.89013 7.03073 1.83543 7.08543C1.78073 7.14013 1.75 7.21431 1.75 7.29167V9.04167C1.75 9.11902 1.71927 9.19321 1.66457 9.24791C1.60987 9.3026 1.53569 9.33333 1.45833 9.33333H1.16667C0.857247 9.33333 0.560501 9.45625 0.341709 9.67504C0.122916 9.89383 0 10.1906 0 10.5C0 10.8094 0.122916 11.1062 0.341709 11.325C0.560501 11.5437 0.857247 11.6667 1.16667 11.6667H3.79167Z" fill="#00B6F3"/>
<path d="M3.79167 17.5002C3.86902 17.5002 3.94321 17.4694 3.99791 17.4147C4.0526 17.36 4.08333 17.2859 4.08333 17.2085V13.1252C4.08333 13.0478 4.0526 12.9736 3.99791 12.9189C3.94321 12.8642 3.86902 12.8335 3.79167 12.8335H2.04167C1.96431 12.8335 1.89013 12.8642 1.83543 12.9189C1.78073 12.9736 1.75 13.0478 1.75 13.1252V14.8752C1.75 14.9525 1.71927 15.0267 1.66457 15.0814C1.60987 15.1361 1.53569 15.1668 1.45833 15.1668H1.16667C0.857247 15.1668 0.560501 15.2897 0.341709 15.5085C0.122916 15.7273 0 16.0241 0 16.3335C0 16.6429 0.122916 16.9397 0.341709 17.1585C0.560501 17.3772 0.857247 17.5002 1.16667 17.5002H3.79167Z" fill="#00B6F3"/>
<path d="M3.79167 23.3332C3.86902 23.3332 3.94321 23.3024 3.99791 23.2477C4.0526 23.193 4.08333 23.1189 4.08333 23.0415V18.9582C4.08333 18.8808 4.0526 18.8066 3.99791 18.7519C3.94321 18.6972 3.86902 18.6665 3.79167 18.6665H2.04167C1.96431 18.6665 1.89013 18.6972 1.83543 18.7519C1.78073 18.8066 1.75 18.8808 1.75 18.9582V20.9998H1.16667C0.857247 20.9998 0.560501 21.1228 0.341709 21.3415C0.122916 21.5603 0 21.8571 0 22.1665C0 22.4759 0.122916 22.7727 0.341709 22.9915C0.560501 23.2103 0.857247 23.3332 1.16667 23.3332H3.79167Z" fill="#00B6F3"/>
<path d="M11.1931 19.7014C11.1597 19.6694 11.1191 19.6458 11.0748 19.6325C11.0305 19.6192 10.9836 19.6166 10.938 19.6249C10.8925 19.6332 10.8496 19.6522 10.8128 19.6803C10.776 19.7084 10.7464 19.7448 10.7265 19.7866L9.33345 22.8456C9.28437 22.9537 9.26943 23.0742 9.29063 23.191C9.31183 23.3078 9.36816 23.4153 9.45211 23.4993C9.53605 23.5832 9.6436 23.6395 9.7604 23.6607C9.87721 23.6819 9.9977 23.667 10.1058 23.6179L13.1636 22.2284C13.2067 22.209 13.2445 22.1795 13.2736 22.1423C13.3027 22.1051 13.3224 22.0613 13.3309 22.0148C13.3394 21.9684 13.3365 21.9205 13.3224 21.8754C13.3083 21.8303 13.2834 21.7893 13.25 21.7559L11.1931 19.7014Z" fill="#007FF3"/>
<path d="M27.1167 22.1214C26.9758 22.1169 26.8359 22.1474 26.7096 22.21C24.1919 23.5284 22.5154 23.4444 21.2717 21.9452C21.1898 21.846 21.087 21.7661 20.9706 21.7113C20.8543 21.6564 20.7272 21.628 20.5986 21.6279H17.3319C17.1634 21.6279 16.9965 21.5947 16.8408 21.5302C16.6851 21.4657 16.5436 21.3712 16.4244 21.252C16.3053 21.1328 16.2107 20.9914 16.1463 20.8357C16.0818 20.68 16.0486 20.5131 16.0486 20.3445C16.0486 20.176 16.0818 20.0091 16.1463 19.8534C16.2107 19.6977 16.3053 19.5563 16.4244 19.4371C16.5436 19.3179 16.6851 19.2234 16.8408 19.1589C16.9965 19.0944 17.1634 19.0612 17.3319 19.0612H20.5986C21.0814 19.0592 21.5529 18.9145 21.9538 18.6454C22.3547 18.3763 22.6672 17.9947 22.8519 17.5486C23.0366 17.1024 23.0854 16.6117 22.9921 16.1379C22.8988 15.6641 22.6676 15.2285 22.3276 14.8857L22.2587 14.8169C22.2316 14.7899 22.2101 14.7578 22.1954 14.7225C22.1807 14.6871 22.1731 14.6492 22.1731 14.611C22.1731 14.5727 22.1807 14.5348 22.1954 14.4995C22.2101 14.4641 22.2316 14.432 22.2587 14.405L23.6249 13.0377C23.6799 12.9834 23.7541 12.953 23.8314 12.953C23.9087 12.953 23.9829 12.9834 24.0379 13.0377L26.5066 15.5064C26.5867 15.5923 26.6833 15.6613 26.7906 15.7091C26.8979 15.7569 27.0138 15.7827 27.1313 15.7847C27.2488 15.7868 27.3655 15.7652 27.4744 15.7212C27.5834 15.6772 27.6824 15.6117 27.7654 15.5286C27.8485 15.4455 27.914 15.3465 27.958 15.2376C28.0021 15.1286 28.0237 15.0119 28.0216 14.8944C28.0195 14.7769 27.9938 14.6611 27.946 14.5537C27.8982 14.4464 27.8292 14.3498 27.7432 14.2697L25.0692 11.5922C25.0421 11.5652 25.0206 11.5331 25.0059 11.4978C24.9912 11.4625 24.9836 11.4246 24.9836 11.3863C24.9836 11.348 24.9912 11.3101 25.0059 11.2748C25.0206 11.2395 25.0421 11.2074 25.0692 11.1804L27.1832 9.06288C27.3459 8.90036 27.4749 8.70739 27.5629 8.495C27.6509 8.28261 27.6962 8.05495 27.6962 7.82504C27.6962 7.59513 27.6509 7.36748 27.5629 7.15509C27.4749 6.9427 27.3459 6.74973 27.1832 6.58721L26.3666 5.76238C26.0384 5.4343 25.5934 5.25 25.1293 5.25C24.6653 5.25 24.2202 5.4343 23.8921 5.76238L21.2554 8.39321C21.2159 8.4331 21.1656 8.46063 21.1107 8.47244C21.0558 8.48424 20.9987 8.47982 20.9462 8.45971C19.9526 8.07779 18.8871 7.91923 17.8253 7.99529C16.7635 8.07135 15.7314 8.38016 14.8023 8.89981C13.8733 9.41946 13.07 10.1372 12.4494 11.0021C11.8288 11.8671 11.4062 12.858 11.2116 13.9045C11.1901 14.0176 11.1913 14.1338 11.2149 14.2465C11.2385 14.3592 11.2841 14.466 11.3492 14.561C11.4142 14.656 11.4974 14.7372 11.5939 14.7999C11.6904 14.8626 11.7984 14.9057 11.9116 14.9265C11.9654 14.9372 12.0201 14.9427 12.0749 14.9429C12.2785 14.9426 12.4756 14.8712 12.6321 14.741C12.7887 14.6109 12.8949 14.4301 12.9324 14.23C13.1743 12.9632 13.8504 11.8203 14.8442 10.9983C15.8381 10.1763 17.0875 9.72663 18.3772 9.72671C18.6535 9.72746 18.9293 9.75008 19.2021 9.79438C19.2552 9.80286 19.3049 9.82588 19.3458 9.86088C19.3867 9.89589 19.4171 9.94152 19.4336 9.99272C19.4502 10.0439 19.4522 10.0987 19.4396 10.151C19.4269 10.2033 19.4 10.2511 19.3619 10.289L11.5114 18.1372C11.4959 18.1524 11.4835 18.1706 11.4751 18.1906C11.4667 18.2106 11.4624 18.2321 11.4624 18.2539C11.4624 18.2756 11.4667 18.2971 11.4751 18.3172C11.4835 18.3372 11.4959 18.3553 11.5114 18.3705L14.4666 21.3304C14.6722 21.9252 15.0574 22.4416 15.5689 22.8083C16.0805 23.175 16.6932 23.374 17.3226 23.3779H20.2007C20.6356 23.8572 21.167 24.2389 21.76 24.4981C22.353 24.7573 22.9941 24.888 23.6412 24.8817C25.0038 24.8232 26.3325 24.4387 27.5157 23.7605C27.69 23.6718 27.8291 23.5267 27.9105 23.3488C27.9919 23.1709 28.0107 22.9708 27.964 22.7809C27.9172 22.591 27.8076 22.4224 27.6529 22.3027C27.4982 22.183 27.3076 22.1191 27.1121 22.1214H27.1167ZM20.4026 15.8459C20.4297 15.8187 20.4618 15.7972 20.4973 15.7825C20.5327 15.7678 20.5707 15.7602 20.6091 15.7602C20.6474 15.7602 20.6854 15.7678 20.7209 15.7825C20.7563 15.7972 20.7885 15.8187 20.8156 15.8459L21.0909 16.1212C21.1862 16.2193 21.2506 16.3431 21.2763 16.4775C21.302 16.6118 21.2878 16.7507 21.2354 16.877C21.1831 17.0033 21.0948 17.1115 20.9817 17.1883C20.8685 17.265 20.7353 17.307 20.5986 17.3089H19.6442C19.5865 17.309 19.53 17.2919 19.4819 17.2599C19.4339 17.2278 19.3964 17.1823 19.3743 17.1289C19.3522 17.0755 19.3464 17.0168 19.3577 16.9602C19.369 16.9035 19.3968 16.8515 19.4377 16.8107L20.4026 15.8459Z" fill="#007FF3"/>
</g>
<defs>
<clipPath id="clip0">
<rect width="28" height="28" fill="white"/>
</clipPath>
</defs>
</svg>
