<svg xmlns="http://www.w3.org/2000/svg" width="593.545" height="645.45" viewBox="0 0 593.545 645.45"><defs><style>.a,.p{fill:#fff;}.b{fill:#009ed0;}.c{fill:#00a4e7;}.d{fill:#49b1e5;}.e{fill:#32494f;}.f{fill:#bdd3dd;}.g{fill:#cee4ef;}.h{fill:#9ed9ef;}.i,.s{fill:none;stroke-width:1.481px;}.i{stroke:#fff;stroke-linecap:round;stroke-linejoin:round;}.j{fill:#ddf1fb;}.k,.p,.q{opacity:0.2;isolation:isolate;}.l{fill:#f6d7b9;}.m{fill:#28baad;}.n{fill:#202237;}.o,.q{fill:#1a2e35;}.r{fill:#0c1a21;}.s{stroke:#49b1e5;stroke-miterlimit:10;}</style></defs><g transform="translate(-90.656 -281.693)"><path class="a" d="M625.2,557.212a47.8,47.8,0,0,0-5.979-20.42l5.923-3.3A54.745,54.745,0,0,0,613.7,519.23l-4.51,5.074a47.68,47.68,0,0,0-18.644-10.254l1.848-6.493-.084-.024a54.645,54.645,0,0,0-14.895-2.075q-1.608,0-3.2.094l.4,6.77a47.811,47.811,0,0,0-20.425,5.961l-3.3-5.925a54.735,54.735,0,0,0-14.27,11.428l5.071,4.515a47.679,47.679,0,0,0-10.268,18.636l-6.492-1.854-.037.127a54.638,54.638,0,0,0-2.075,14.894q0,1.586.092,3.159l6.77-.4a47.8,47.8,0,0,0,5.944,20.431l-5.927,3.291a54.712,54.712,0,0,0,11.417,14.279l4.518-5.067a47.677,47.677,0,0,0,18.628,10.281l-1.86,6.493.17.049a54.679,54.679,0,0,0,14.894,2.075q1.651,0,3.291-.1l-.411-6.767a47.785,47.785,0,0,0,20.414-6l3.307,5.92A54.722,54.722,0,0,0,618.32,596.3l-5.078-4.505a47.68,47.68,0,0,0,10.241-18.653l6.493,1.843.011-.042a54.606,54.606,0,0,0,2.076-14.894q0-1.63-.1-3.248Zm-59.616,44.782h0l.334-1.178Zm39.706-34.037a28.9,28.9,0,1,1,1.1-7.9A28.954,28.954,0,0,1,605.287,567.957Z"/><path class="a" d="M641.086,461.467a23.753,23.753,0,0,0-2.97-10.145l2.942-1.64a27.176,27.176,0,0,0-5.683-7.085l-2.241,2.521a23.685,23.685,0,0,0-9.262-5.1l.918-3.225-.042-.012a27.127,27.127,0,0,0-7.4-1.031q-.8,0-1.591.047l.2,3.363a23.754,23.754,0,0,0-10.147,2.961l-1.638-2.943a27.209,27.209,0,0,0-7.09,5.677l2.52,2.243a23.677,23.677,0,0,0-5.1,9.259l-3.226-.921-.018.063a27.129,27.129,0,0,0-1.031,7.4c0,.526.015,1.049.045,1.57l3.364-.2a23.745,23.745,0,0,0,2.953,10.15l-2.945,1.636a27.2,27.2,0,0,0,5.672,7.093l2.245-2.517a23.688,23.688,0,0,0,9.255,5.108l-.924,3.226.084.024a27.167,27.167,0,0,0,7.4,1.031q.82,0,1.635-.05l-.2-3.362a23.736,23.736,0,0,0,10.142-2.979l1.642,2.941a27.176,27.176,0,0,0,7.081-5.689l-2.523-2.238a23.7,23.7,0,0,0,5.088-9.267l3.225.916.006-.021a27.1,27.1,0,0,0,1.031-7.4q0-.81-.048-1.613Zm-29.618,22.248h0l.166-.585ZM631.2,466.8a14.36,14.36,0,1,1,.547-3.923A14.386,14.386,0,0,1,631.2,466.8Z"/><path class="b" d="M348.468,319.484l-26.987-10.789,9.633-7.854,12.335,8.464Z"/><path class="c" d="M347.168,293.314l1.3,26.17-12.728-11.566L280.977,288.8Z"/><path class="d" d="M355.425,281.693l-8.257,11.622L280.977,288.8Z"/><path class="d" d="M335.741,307.918,324.3,326.694,280.977,288.8Z"/><path class="e" d="M638.746,573.386l-.472-2.246a50.765,50.765,0,0,0,6.478-1.8l.767,2.163A53.158,53.158,0,0,1,638.746,573.386Zm17.245-7.184-1.3-1.891a40.4,40.4,0,0,0,5.174-4.233l1.594,1.65A42.819,42.819,0,0,1,655.991,566.2Zm12.782-13.645-1.953-1.2a55.683,55.683,0,0,0,3.166-5.951l2.086.957A57.383,57.383,0,0,1,668.773,552.557Zm7.354-17.065-2.184-.71c.7-2.157,1.368-4.36,1.982-6.545l2.209.62C677.513,531.072,676.837,533.3,676.127,535.492Zm4.749-17.858-2.245-.468c.465-2.232.887-4.493,1.256-6.72l2.263.376C681.777,513.078,681.348,515.371,680.876,517.634Zm2.75-18.274-2.286-.21c.21-2.277.368-4.572.472-6.815l2.292.105C684,494.72,683.838,497.047,683.626,499.36Zm-1.739-18.4-.062-1.592c.055-1.339.082-2.569.082-3.793q0-.759-.014-1.515l2.294-.041q.013.775.014,1.556,0,1.887-.085,3.793l.065,1.514Zm-.969-18.167c-.342-2.21-.778-4.454-1.3-6.67l2.234-.523c.532,2.272.979,4.574,1.33,6.842Zm-4.532-17.536c-.754-2.117-1.587-4.253-2.476-6.348l2.113-.9c.907,2.137,1.755,4.315,2.525,6.475Zm-7.4-16.584c-1.062-1.972-2.2-3.964-3.391-5.923l1.964-1.191c1.207,1.993,2.367,4.02,3.447,6.026Zm-9.671-15.422c-1.292-1.8-2.67-3.647-4.1-5.473l1.809-1.413c1.446,1.851,2.844,3.719,4.155,5.551Zm-11.394-14.24q-2.265-2.559-4.622-5.053l1.669-1.575q2.38,2.519,4.672,5.108Zm-12.667-13.159q-2.471-2.377-5-4.69l1.548-1.693q2.551,2.331,5.045,4.73ZM621.67,373.6q-2.622-2.227-5.273-4.392l1.452-1.778q2.667,2.181,5.306,4.421Zm-14.309-11.085c-1.969-1.1-4-2.165-6.044-3.175l1.017-2.056c2.076,1.025,4.143,2.111,6.143,3.226Zm-16.42-7.811c-2.092-.809-4.252-1.571-6.425-2.263l.7-2.187c2.215.707,4.419,1.484,6.553,2.309Zm-165.569-4.653q-2.5,0-5.027-.052l.049-2.294q2.5.053,4.979.052l1.873-.007.018,2.294Zm13.385-.254-.062-2.294q3.438-.1,6.877-.2l.071,2.294Q442.2,349.7,438.757,349.8Zm134.786-.3c-2.187-.481-4.441-.918-6.7-1.3l.379-2.264c2.3.387,4.591.83,6.815,1.32Zm-164.736-.091c-2.372-.2-4.694-.45-6.9-.745l.3-2.274c2.171.289,4.457.536,6.793.734Zm48.308-.193-.081-2.294,6.878-.249.085,2.294Zm18.352-.69-.091-2.292,6.878-.276.093,2.292Zm18.344-.742-.093-2.292,6.878-.28.094,2.292Zm18.371-.886-.165-2.288q3.444-.252,6.886-.451l.133,2.29Q515.61,346.649,512.182,346.9Zm43.366-.161q-3.4-.318-6.823-.506l.127-2.292q3.467.193,6.91.514Zm-165.038-.147c-2.309-.547-4.569-1.169-6.716-1.851l.694-2.187c2.093.663,4.3,1.271,6.551,1.8Zm139.95-.61-.052-2.295q3.105-.07,6.2-.073h.716l-.01,2.294h-.705Q533.542,345.91,530.46,345.982Zm-157.469-5.555a65.221,65.221,0,0,1-6.106-3.422l1.229-1.937a63.649,63.649,0,0,0,5.892,3.3Zm-15.313-10.6a57.4,57.4,0,0,1-4.766-5.15l1.777-1.453a54.77,54.77,0,0,0,4.574,4.943Z"/><path class="a" d="M564.4,842.053c-2.592-5.961-13-28.88-15.563-43.365s-10.438-26.257-10.653-33.5,11.664-11.5,14.775-26.364,9.353-39.132,13.21-38.394,6.494,27.368,10.169,33.936,13.578,14.727,5.9,24.189-3.576,20.776,3.465,30.654S572.794,811.4,574.755,824.84s-1.765,31.52-1.765,31.52Z"/><path class="f" d="M567.842,813.358a1.171,1.171,0,0,1-1.162-1.042c-.972-8.858-3.662-15.614-5.823-21.044-1.7-4.279-3.176-7.977-3.311-11.442-.167-4.249,2.223-7.552,4.53-10.744,2.141-2.96,4.355-6.02,4.883-10.05,1.107-8.434-6.5-27.145-6.575-27.332a1.171,1.171,0,0,1,2.168-.888c.322.792,7.915,19.479,6.731,28.527-.606,4.615-3.1,8.068-5.308,11.115-2.267,3.133-4.222,5.839-4.088,9.281.12,3.062,1.455,6.42,3.145,10.669,2.214,5.56,4.968,12.478,5.976,21.651a1.172,1.172,0,0,1-1.036,1.293C567.929,813.356,567.886,813.358,567.842,813.358Z"/><path class="a" d="M544.568,837.59c-2.876-1.293-3.806-16.979-9.075-19.321s-9.075-9.661-10.831-17.272-17.272-10.832-20.2-19.028,5.855-14.052,5.27-21.663-7.026-18.443-2.342-23.42,12.881,12.3,17.272,15.808,12.88,7.319,10.538,13.759.878,16.979,16.1,22.834S576.477,851.934,544.568,837.59Z"/><path class="f" d="M546.911,810.657a1.172,1.172,0,0,1-1.114-.807c-2.989-9.155-7.7-12.762-13.151-16.938a59.6,59.6,0,0,1-8.56-7.524c-8.517-9.43-4.54-25.844-4.366-26.537a1.171,1.171,0,1,1,2.273.567c-.039.158-3.844,15.9,3.831,24.4a57.833,57.833,0,0,0,8.245,7.234c5.523,4.231,10.74,8.224,13.956,18.07a1.17,1.17,0,0,1-1.114,1.534Z"/><path class="a" d="M572.964,839.346c.781-2.342,1.561-12.49,7.026-14.832s10.929-3.9,15.223-10.929,0-17.955,4.684-25.371,15.222-.391,20.687-7.807-6.636-20.3-2.342-25.761,10.148-20.3,4.293-22.249-22.248,8.588-26.542,17.955-12.88,14.833-14.832,22.249-8.2,11.319-9.758,18.735.78,18.736-1.952,26.933S572.964,839.346,572.964,839.346Z"/><path class="f" d="M586.941,881.5H537.91a6.578,6.578,0,0,1-6.573-6.315l-2.089-52.233H595.6l-2.089,52.233A6.578,6.578,0,0,1,586.941,881.5Z"/><path class="f" d="M583.9,812.023c-.03,0-.06,0-.087,0a1.175,1.175,0,0,1-1.084-1.254c1.475-20.249,8.506-31.234,15.883-40.087,5.617-6.743,9.1-19.717,9.135-19.848a1.171,1.171,0,1,1,2.264.6c-.146.551-3.648,13.6-9.6,20.748-7.126,8.554-13.919,19.168-15.344,38.756A1.172,1.172,0,0,1,583.9,812.023Z"/><path class="g" d="M562.625,400.282H201.7a9.227,9.227,0,0,0-9.237,9.219h0V653.3a9.228,9.228,0,0,0,9.237,9.2H562.667a9.227,9.227,0,0,0,9.237-9.219h0V409.5a9.227,9.227,0,0,0-9.236-9.22Z"/><rect class="h" width="355.107" height="235.62" transform="translate(204.615 413.605)"/><rect class="d" width="54.699" height="203.064" transform="translate(204.615 446.255)"/><rect class="e" width="355.107" height="35.118" transform="translate(204.615 413.077)"/><line class="i" x2="11.817" transform="translate(536.284 425.567)"/><line class="i" x2="11.817" transform="translate(536.284 431.169)"/><line class="i" x2="11.817" transform="translate(536.284 436.77)"/><circle class="j" cx="4.146" cy="4.146" r="4.146" transform="translate(216.185 425.899)"/><circle class="j" cx="4.146" cy="4.146" r="4.146" transform="translate(232.003 425.899)"/><circle class="j" cx="4.146" cy="4.146" r="4.146" transform="translate(247.83 425.899)"/><rect class="a" width="229.363" height="154.793" transform="translate(294.934 468.866)"/><rect class="k" width="12.464" height="12.464" transform="translate(216.228 459.655)"/><rect class="k" width="12.464" height="12.464" transform="translate(235.102 459.655)"/><rect class="k" width="12.464" height="12.464" transform="translate(216.228 479.415)"/><rect class="k" width="12.464" height="12.464" transform="translate(235.102 479.415)"/><rect class="k" width="12.464" height="12.464" transform="translate(216.228 499.175)"/><rect class="k" width="12.464" height="12.464" transform="translate(235.102 499.175)"/><rect class="k" width="12.464" height="12.464" transform="translate(216.228 518.934)"/><rect class="k" width="12.464" height="12.464" transform="translate(235.102 518.934)"/><rect class="k" width="12.464" height="12.464" transform="translate(216.228 538.694)"/><rect class="k" width="12.464" height="12.464" transform="translate(235.102 538.694)"/><rect class="k" width="12.464" height="12.464" transform="translate(216.228 558.463)"/><rect class="k" width="12.464" height="12.464" transform="translate(235.102 558.463)"/><path class="e" d="M228.3,577.652a1.413,1.413,0,1,1-1.413-1.413h0A1.413,1.413,0,0,1,228.3,577.652Z"/><path class="e" d="M233.39,577.652a1.413,1.413,0,1,1-1.418-1.413,1.414,1.414,0,0,1,1.418,1.413Z"/><path class="e" d="M238.49,577.652a1.414,1.414,0,1,1-1.413-1.413h0A1.413,1.413,0,0,1,238.49,577.652Z"/><rect class="j" width="114.269" height="2.555" transform="translate(390.235 495.88)"/><rect class="j" width="114.269" height="2.555" transform="translate(390.235 513.299)"/><rect class="j" width="114.269" height="2.555" transform="translate(390.235 529.568)"/><rect class="j" width="114.269" height="2.555" transform="translate(314.175 560.114)"/><rect class="j" width="114.269" height="2.555" transform="translate(314.175 577.584)"/><rect class="j" width="114.269" height="2.555" transform="translate(314.175 593.887)"/><path class="j" d="M340.644,536.881a24.832,24.832,0,1,1,9.664-1.958h0A24.794,24.794,0,0,1,340.644,536.881Zm0-40.618a15.8,15.8,0,1,0,11.17,4.623A15.8,15.8,0,0,0,340.644,496.263Z"/><path class="d" d="M315.9,513.8c0-.613-.06-1.217-.06-1.83a24.619,24.619,0,0,1,7.237-17.495,25.644,25.644,0,0,1,2.4-2.1c4.47-.468,5.33,4.325,5.45,7.16a14.484,14.484,0,0,0-1.476,1.3,15.611,15.611,0,0,0-4.606,11.136,16.411,16.411,0,0,0,.1,1.828Z"/><path class="e" d="M323.566,493.973A24.691,24.691,0,0,1,340.6,487.23v9a15.681,15.681,0,0,0-11.127,4.606l-.454.477Z"/><rect class="d" width="0.852" height="7.68" transform="translate(454.07 572.434)"/><rect class="d" width="4.385" height="0.852" transform="translate(452.298 572.008)"/><rect class="d" width="10.973" height="17.555" transform="translate(449.013 579.56)"/><rect class="d" width="0.852" height="7.68" transform="translate(482.589 562.558)"/><rect class="d" width="4.385" height="0.852" transform="translate(480.819 562.132)"/><rect class="d" width="10.973" height="27.422" transform="translate(477.532 569.684)"/><rect class="d" width="0.852" height="7.68" transform="translate(468.33 557.075)"/><rect class="d" width="4.385" height="0.852" transform="translate(466.559 556.649)"/><rect class="d" width="0.852" height="7.68" transform="translate(496.849 552.682)"/><rect class="d" width="4.385" height="0.852" transform="translate(495.079 552.256)"/><rect class="e" width="10.973" height="32.913" transform="translate(463.272 564.202)"/><rect class="e" width="10.973" height="37.298" transform="translate(491.792 559.817)"/><path class="l" d="M134.051,683.153l50.559-2.1,2.216-86.5-3.492-21.722-23.353-8.587-15.04,2.87a17.644,17.644,0,0,0-14.327,17.95l5.483,61.218Z"/><path class="l" d="M154.344,553.59v17.381s3.673,2.194,12.268,2.194c4.633,0,5.674-2.194,5.674-2.194v-6.425Z"/><path class="l" d="M152.32,540.613c.041.629.061,1.218.1,1.787,0,.2-.02.406-.02.63-.427,10.317,6.194,21.366,16.167,22.869,0,0,.081.02.223.04.081,0,.2.021.345.021,2.133.264,9.85.894,12.674-2.214,3.31-3.656,6.254-10.357,6.254-14.936s-.832-5.662-.832-7.51c0-1.442.775-5.955.789-7.913.067-9.208-6.13-18.344-17.138-18.344C154.372,515.043,151.853,529.524,152.32,540.613Z"/><path class="m" d="M172.278,570.382"/><path class="l" d="M113.561,639.731c5.422,2.256,21.439-28.025,27.283-41.38s8.061-24.924,1.442-27.677-13.26,6.975-18.612,20.535S108.14,637.476,113.561,639.731Z"/><path class="l" d="M144.171,695.651c4.733-2.169-9.929-37.6-14.435-47.434s-9.99-19.885-15.3-17.453-1.276,13.146,3.231,22.982S139.437,697.82,144.171,695.651Z"/><path class="l" d="M140.27,686.529c-5.767,2.141-.834,11.882.969,15.144,2.937,5.312,11.146,7.94,13.224,6.83s-5.479-12.636-5.221-13.3,3.7,5.911,5.546,4.663-2.733-9.029-5.728-11.415S143.884,685.187,140.27,686.529Z"/><path class="l" d="M165.331,676.729c-5.041,1.91-7.847,9.909-6.143,17.349a110.677,110.677,0,0,0,7.936,22.411c10.47,22.2,18.571,51.872,26,51.766s9.887-18.514,2.611-42.492c-6.577-21.674-12.6-50.1-18.07-51.508C174.893,673.54,169.741,675.057,165.331,676.729Z"/><path class="l" d="M195.567,763.521c-20.176-6.179-11.045,74.878-4.272,92.217s9.316-12.36,10.534-42.283S203.506,765.951,195.567,763.521Z"/><path class="l" d="M186.046,834.026c.229.306,1.684,26.941,1.684,26.941s12.858.919,12.858,0,.995-24.032.995-24.032Z"/><path class="l" d="M140.634,834.026c.229.306,1.683,26.941,1.683,26.941s12.859.919,12.859,0,1-24.032,1-24.032Z"/><path class="l" d="M140.786,676.376c-5.316.9-9.619,8.2-9.389,15.83a110.583,110.583,0,0,0,3.443,23.524c5.97,23.8,8.165,54.488,15.472,55.823s13.288-16.247,10.8-41.181c-2.252-22.538-2.655-51.588-7.746-54.033C150.785,675.1,145.436,675.591,140.786,676.376Z"/><path class="l" d="M153.107,765.609c-19.841-7.184-14.3,74.242-8.41,91.9s9.433-11.887,12.153-41.712S160.912,768.436,153.107,765.609Z"/><path class="e" d="M188.342,676.767s21.022,75.926,20.614,91.845-6.531,82.252-6.531,82.252-17.757,2.143-17.757,0-3.061-79.292-4.286-86.028-14.7-35.513-14.7-35.513-.613,33.064-.613,42.249-8.265,78.68-8.265,78.68l-17.145.306s-2.449-42.248-2.449-54.188,2.908-30.615,2.755-33.064-23.267-62.455-7.96-85.722C152.138,646.99,188.342,676.767,188.342,676.767Z"/><path class="d" d="M184.914,572.252c3.513,3.26,6.245,8.963,6.908,20.629.186,3.26,2.6,12.21-1.773,23.117-6.767,16.876.064,51.808,1.834,60.089a1.506,1.506,0,0,1-1.452,1.821l-58.157,1.008a2.9,2.9,0,0,1-2.953-3.124c.937-11.615,3.99-51.567,2.465-61.112-5.4-33.806.042-44.686,9.462-47.328C155.356,563.394,181.4,568.993,184.914,572.252Z"/><path class="l" d="M229.18,621.308c3.8-4.415-19.807-28.843-30.595-38.466s-21.007-15.277-25.641-9.887,2.488,14.647,13.619,23.869S225.385,625.723,229.18,621.308Z"/><path class="l" d="M276.553,574.9c-3.4-3.881-32.9,20.108-40.968,27.183s-16.057,15.137-12.24,19.489,12.853-2.52,20.918-9.6S279.958,578.78,276.553,574.9Z"/><path class="l" d="M287.032,563.17c-1.354-1.512-8.719,5.726-11.09,7.6-.358.283-.609.449-.7.437s-.085-.138-.024-.323c.383-1.156,3.287-5.209,1.877-6.486-1.55-1.4-7.348,4.1-9.312,7.615-.109.194-.255.407-.338.587-1.594,3.446-1.932,5.755.211,8.921,3.418,5.052,11.643-1.99,14.361-4.494a19.02,19.02,0,0,0,4.826-8.08C287.655,566.325,287.783,564.01,287.032,563.17Z"/><path class="n" d="M191.242,527.7c-.407,4.8-3.108,9.076-5.039,13.449-2.257,5.111-2.4,10.315-2.168,15.8a21.863,21.863,0,0,1-1.089,9c-.964,2.452-3.127,4.513-3.495,7.178-.486,3.527,2.268,7.273,3.021,10.677a32.076,32.076,0,0,1,.9,10.246c-.588,5.729-3.886,9.955-8.582,13.047-4.98,3.278-10.008,6.748-14.07,11.153-4.332,4.7-9.078,5.716-14.455,2.145-4.177-2.773-7.679-7.138-12.865-8.021-2.708-.462-5.484-.349-8.205-.724-7.847-1.08-14.078-9.791-10-17.4,1.756-3.275,5.4-4.84,7.474-7.862,3.481-5.063,2.368-11.418,2.247-17.172-.124-5.948,2.379-11.8,5.943-16.467,2.46-3.223,5.8-5.95,8.378-9.178,3.01-3.765,3.895-7.912,4.966-12.5.978-4.186,3.59-7.872,6.4-11.035,3.6-4.045,7.612-7.521,13.038-8.614,9.4-1.895,26.214,2.139,27.559,13.77A12.526,12.526,0,0,1,191.242,527.7Z"/><path class="e" d="M200.69,858.261s1.355,3.936,9.548,9.061,10.341,4.007,10.527,5.923-34.059.34-34.059.34l.535-15.762S200.686,857.85,200.69,858.261Z"/><path class="e" d="M155.278,857.829s1.553,3.307,7.071,8.652c4.874,4.72,9.181,3.709,8.786,5.4-.378,1.621-29.328.57-29.328.57v-14.62S155.286,857.837,155.278,857.829Z"/><path class="l" d="M437.69,730.365h.335a30.628,30.628,0,0,0,9.369-3.3l.042.083v6.735s-1.3,6.4-9.16,8.2c-7.822-1.8-9.16-8.24-9.16-8.24v-6.191l.083-.125A30.758,30.758,0,0,0,437.69,730.365Z"/><path class="l" d="M438.025,730.365h-.335a30.758,30.758,0,0,1-8.491-2.844c-4.14-2.049-8.365-5.521-9.2-11.168,0,0-4.811-2.091-4.727-6.023s4.267-2.886,4.267-2.886-3.472-12.381,3.053-21.5c6.525-9.16,14.89-6.316,14.89-6.316h.669s8.408-2.844,14.933,6.316c6.567,9.118,3.053,21.5,3.053,21.5s4.183-1.046,4.267,2.886-4.685,6.023-4.685,6.023c-.795,5.27-4.518,8.616-8.324,10.708A30.628,30.628,0,0,1,438.025,730.365Z"/><path class="o" d="M478.3,828.492l.083.251c-18.655,7.319-38.439,19.324-40.112,20.328-1.673-1-21.415-12.967-40.071-20.328l.084-.251V800.927H478.3v27.565Z"/><path class="p" d="M478.3,828.492l.083.251c-18.655,7.319-38.439,19.324-40.112,20.328-1.673-1-21.415-12.967-40.071-20.328l.084-.251V800.927H478.3v27.565Z"/><path class="l" d="M398.289,828.492l-.084.251c-3.513-1.381-7.026-2.594-10.331-3.556-8.407-6.817-19.909-16.73-21.206-21-1.046-3.346,3.472-13.134,9.2-23.841l.083.041,18.823,10.624c-2.552,4.6-4.727,9.035-4.308,10.165.878,2.593,7.7,9.787,7.7,9.787h.125Z"/><path class="l" d="M478.3,828.492V810.966h.125s6.776-7.194,7.7-9.787c.419-1.13-1.756-5.564-4.308-10.165L500.64,780.39l.084-.041c5.73,10.707,10.248,20.495,9.2,23.841-1.3,4.225-12.758,14.137-21.164,20.956-3.3.961-6.818,2.175-10.374,3.6Z"/><path class="d" d="M438.025,800.927H402.6v-.669c.418-6.943-.5-21.582-.5-21.582s-4.016,6.357-7.32,12.338L375.953,780.39l-.083-.041c5.856-11.043,13.05-23.089,16.814-30.032,7.446-13.719,36.432-16.48,36.432-16.48s1.338,6.441,9.16,8.24c7.863-1.8,9.16-8.2,9.16-8.2s29.028,2.719,36.473,16.438c3.765,6.943,10.959,18.989,16.815,30.032l-.084.041-18.822,10.624c-3.3-5.981-7.32-12.338-7.32-12.338s-.92,14.639-.543,21.582v.669h-35.93Z"/><path class="n" d="M416.995,702.488a7.157,7.157,0,0,1-1.151-4.307,6.741,6.741,0,0,1,2.37-4.8,3.784,3.784,0,0,1-.2-2.439,2.883,2.883,0,0,1,2.031-2.112,6.832,6.832,0,0,1,.541-4.958,4.313,4.313,0,0,1,5.28-1.95,6.9,6.9,0,0,1,3.317-5.77,5.1,5.1,0,0,1,5.281.487,2.706,2.706,0,0,1,1.827-1.707,2.794,2.794,0,0,0,4.422,0,2.706,2.706,0,0,1,1.828,1.707,5.1,5.1,0,0,1,5.28-.487,6.9,6.9,0,0,1,3.317,5.77,4.312,4.312,0,0,1,5.28,1.95,6.829,6.829,0,0,1,.542,4.958,2.885,2.885,0,0,1,2.031,2.112,3.774,3.774,0,0,1-.2,2.439,6.737,6.737,0,0,1,2.37,4.8A7.142,7.142,0,0,1,460,702.488a2.722,2.722,0,0,1,.812,2.845,2.073,2.073,0,0,1-2.031,1.624,3.406,3.406,0,0,1-.913.732,3.019,3.019,0,0,1-.745.285,2.813,2.813,0,0,1-1.388-1.219,4.461,4.461,0,0,1-.135-3.535,7.294,7.294,0,0,1-1.692-5.324,5.682,5.682,0,0,1,.473-1.625,5.717,5.717,0,0,1-3.215-3.657,6.229,6.229,0,0,1-.2-2.032,1.67,1.67,0,0,1-2.031,0,2.243,2.243,0,0,1-.711-1.179,5.289,5.289,0,0,1-3.351.813,5.649,5.649,0,0,1-3.283-1.585s-.474,1.781-3.049,1.822v.007c-.015,0-.027,0-.042,0s-.026,0-.041,0v-.007c-2.576-.041-3.05-1.822-3.05-1.822a5.649,5.649,0,0,1-3.283,1.585,5.293,5.293,0,0,1-3.351-.813,2.239,2.239,0,0,1-.71,1.179,1.671,1.671,0,0,1-2.032,0,6.225,6.225,0,0,1-.2,2.032,5.715,5.715,0,0,1-3.216,3.657,5.683,5.683,0,0,1,.474,1.625,7.3,7.3,0,0,1-1.693,5.324,4.461,4.461,0,0,1-.135,3.535,2.813,2.813,0,0,1-1.388,1.219,3.034,3.034,0,0,1-.745-.285,3.407,3.407,0,0,1-.913-.732,2.074,2.074,0,0,1-2.031-1.624A2.723,2.723,0,0,1,416.995,702.488Z"/><path class="e" d="M472.58,876.058s-96.222-8.526-105.966-29.475c-7.18-15.438,8.039-27.771,25.578-21.681s80.631,37.027,80.631,37.027Z"/><path class="q" d="M472.58,876.058s-96.222-8.526-105.966-29.475c-7.18-15.438,8.039-27.771,25.578-21.681s80.631,37.027,80.631,37.027Z"/><path class="r" d="M478.734,864.378v12.473s16.459,1.092,17.521-.748,2.336-8.5-1.841-11.682S480.045,861.079,478.734,864.378Z"/><path class="l" d="M472.4,861.929l6.455,2.375v12.424l-6.7-.67Z"/><path class="e" d="M404.014,876.058s96.222-8.526,105.966-29.475c7.18-15.438-8.039-27.771-25.578-21.681s-80.631,37.027-80.631,37.027Z"/><path class="l" d="M404.006,861.929l-6.455,2.375v12.424l6.7-.67Z"/><path class="e" d="M397.673,864.378v12.473s-16.459,1.092-17.521-.748-2.337-8.5,1.84-11.682S396.361,861.079,397.673,864.378Z"/><circle class="f" cx="5.523" cy="5.523" r="5.523" transform="translate(432.976 817.792)"/><path class="s" d="M275.836,366.009c-7.122,0-7.122-6.983-14.244-6.983s-7.123,6.983-14.245,6.983-7.121-6.983-14.243-6.983-7.121,6.983-14.243,6.983-7.121-6.983-14.242-6.983-7.121,6.983-14.243,6.983h-.017c-7.123,0-7.123-6.983-14.245-6.983s-7.122,6.983-14.245,6.983-7.121-6.983-14.242-6.983-7.122,6.983-14.243,6.983-7.122-6.983-14.243-6.983-7.121,6.983-14.242,6.983-7.122-6.983-14.243-6.983"/><path class="s" d="M670.033,926.4c-7.123,0-7.123-6.983-14.245-6.983s-7.122,6.983-14.245,6.983-7.121-6.983-14.242-6.983-7.122,6.983-14.244,6.983-7.121-6.983-14.242-6.983-7.121,6.983-14.242,6.983h-.018c-7.122,0-7.122-6.983-14.245-6.983s-7.122,6.983-14.244,6.983-7.122-6.983-14.243-6.983S534.7,926.4,527.58,926.4s-7.121-6.983-14.243-6.983S506.216,926.4,499.1,926.4s-7.121-6.983-14.243-6.983"/><circle class="s" cx="17.787" cy="17.787" r="17.787" transform="translate(275.836 700.417)"/><circle class="s" cx="17.787" cy="17.787" r="17.787" transform="translate(612.465 645.285)"/></g></svg>